<svg width="346" height="346" viewBox="0 0 346 346" fill="none" xmlns="http://www.w3.org/2000/svg">
<rect width="346" height="346" fill="black"/>
<path d="M74.2921 231.919V219.963L84.8357 217.384C84.9885 211.758 85.0649 205.819 85.0649 199.568C85.0649 193.16 85.0649 187.534 85.0649 182.689V168.154C85.0649 163.778 85.0649 160.261 85.0649 157.604C85.0649 154.948 84.9885 152.447 84.8357 150.103C84.8357 147.758 84.6829 145.023 84.3773 141.897L72 139.788V130.176L122.655 114L126.781 116.579L127.927 132.755C133.275 126.19 138.624 121.424 143.972 118.454C149.32 115.485 155.356 114 162.079 114C178.277 114 188.82 120.799 193.71 134.396C200.128 126.269 206.011 120.877 211.359 118.22C216.707 115.407 222.514 114 228.779 114C241.309 114 250.248 117.516 255.597 124.549C261.098 131.582 263.848 141.975 263.848 155.729V182.689C263.848 187.69 263.848 193.394 263.848 199.802C263.848 206.21 263.924 212.227 264.077 217.853L273.704 219.963V231.919H212.276V219.963L220.986 217.619C221.139 211.993 221.215 205.975 221.215 199.568C221.215 193.16 221.215 187.534 221.215 182.689V159.011C221.215 151.04 220.451 145.726 218.923 143.07C217.395 140.413 214.644 139.084 210.672 139.084C205.782 139.084 200.892 140.96 196.002 144.711C196.155 145.961 196.231 147.289 196.231 148.696C196.384 150.103 196.461 151.587 196.461 153.15V182.689C196.461 187.69 196.461 193.394 196.461 199.802C196.461 206.21 196.537 212.305 196.69 218.088L205.4 219.963V231.919H143.742V219.963L153.598 217.384C153.751 211.914 153.828 205.975 153.828 199.568C153.828 193.16 153.828 187.534 153.828 182.689V159.011C153.828 151.822 153.064 146.742 151.536 143.773C150.16 140.647 147.257 139.084 142.826 139.084C140.534 139.084 138.165 139.631 135.72 140.725C133.275 141.819 130.907 143.226 128.615 144.945V182.689C128.615 187.534 128.615 193.238 128.615 199.802C128.615 206.21 128.691 212.305 128.844 218.088L137.554 219.963V231.919H74.2921Z" fill="white"/>
</svg>
