<svg width="130" height="76" viewBox="0 0 130 76" fill="none" xmlns="http://www.w3.org/2000/svg">
    <path d="M1.47727 76V68.2942L8.27273 66.6322C8.37122 63.006 8.42045 59.1783 8.42045 55.1491C8.42045 51.0193 8.42045 47.393 8.42045 44.2704V34.9026C8.42045 32.0821 8.42045 29.8157 8.42045 28.1034C8.42045 26.391 8.37122 24.7793 8.27273 23.2684C8.27273 21.7575 8.17424 19.9947 7.97727 17.9801L0 16.6203V10.4255L32.6477 0L35.3068 1.66203L36.0455 12.0875C39.4924 7.85686 42.9394 4.78462 46.3864 2.87078C49.8333 0.956923 53.7235 0 58.0568 0C68.4963 0 75.2917 4.38171 78.4432 13.1451C82.5796 7.90722 86.3713 4.43207 89.8182 2.71968C93.2651 0.906564 97.0076 0 101.045 0C109.121 0 114.883 2.2664 118.33 6.79921C121.875 11.332 123.648 18.0304 123.648 26.8946V44.2704C123.648 47.4937 123.648 51.1704 123.648 55.3002C123.648 59.43 123.697 63.3082 123.795 66.9344L130 68.2942V76H90.4091V68.2942L96.0227 66.7833C96.1213 63.1571 96.1705 59.2789 96.1705 55.1491C96.1705 51.0193 96.1705 47.393 96.1705 44.2704V29.0099C96.1705 23.8728 95.6781 20.4479 94.6932 18.7356C93.7083 17.0232 91.9356 16.167 89.375 16.167C86.2235 16.167 83.0719 17.3757 79.9205 19.7932C80.019 20.599 80.0682 21.4553 80.0682 22.3618C80.1667 23.2684 80.2159 24.2253 80.2159 25.2326V44.2704C80.2159 47.4937 80.2159 51.1704 80.2159 55.3002C80.2159 59.43 80.2651 63.3585 80.3636 67.0855L85.9773 68.2942V76H46.2386V68.2942L52.5909 66.6322C52.6894 63.1067 52.7386 59.2789 52.7386 55.1491C52.7386 51.0193 52.7386 47.393 52.7386 44.2704V29.0099C52.7386 24.3764 52.2463 21.1028 51.2614 19.1889C50.375 17.1743 48.5037 16.167 45.6477 16.167C44.1705 16.167 42.644 16.5195 41.0682 17.2247C39.4924 17.9298 37.9659 18.8364 36.4886 19.9443V44.2704C36.4886 47.393 36.4886 51.0696 36.4886 55.3002C36.4886 59.43 36.5378 63.3585 36.6364 67.0855L42.25 68.2942V76H1.47727Z" fill="white"/>
</svg>
